<?xml version="1.0" encoding="UTF-8" standalone="no"?>
<!DOCTYPE svg PUBLIC "-//W3C//DTD SVG 1.1//EN"
 "http://www.w3.org/Graphics/SVG/1.1/DTD/svg11.dtd">
<!-- Generated by graphviz version 14.0.0 (20250921.2048)
 -->
<!-- Pages: 1 -->
<svg width="1777pt" height="156pt"
 viewBox="0.00 0.00 1777.00 156.00" xmlns="http://www.w3.org/2000/svg" xmlns:xlink="http://www.w3.org/1999/xlink">
<g id="graph0" class="graph" transform="scale(1 1) rotate(0) translate(4 152)">
<polygon fill="white" stroke="none" points="-4,4 -4,-152 1772.5,-152 1772.5,4 -4,4"/>
<!-- 2335627013712 -->
<g id="node1" class="node">
<title>2335627013712</title>
<polygon fill="none" stroke="black" points="1264.5,-27.5 1264.5,-63.5 1454.25,-63.5 1454.25,-27.5 1264.5,-27.5"/>
<text xml:space="preserve" text-anchor="middle" x="1276.62" y="-40.7" font-family="Times New Roman,serif" font-size="14.00">L</text>
<polyline fill="none" stroke="black" points="1288.75,-28 1288.75,-63.5"/>
<text xml:space="preserve" text-anchor="middle" x="1330.88" y="-40.7" font-family="Times New Roman,serif" font-size="14.00">data &#45;1.0000</text>
<polyline fill="none" stroke="black" points="1373,-28 1373,-63.5"/>
<text xml:space="preserve" text-anchor="middle" x="1413.62" y="-40.7" font-family="Times New Roman,serif" font-size="14.00">grad 0.4200</text>
</g>
<!-- 2335633819216tanh -->
<g id="node4" class="node">
<title>2335633819216tanh</title>
<ellipse fill="none" stroke="black" cx="1517.25" cy="-45.5" rx="27" ry="18"/>
<text xml:space="preserve" text-anchor="middle" x="1517.25" y="-40.45" font-family="Times New Roman,serif" font-size="14.00">tanh</text>
</g>
<!-- 2335627013712&#45;&gt;2335633819216tanh -->
<g id="edge8" class="edge">
<title>2335627013712&#45;&gt;2335633819216tanh</title>
<path fill="none" stroke="black" d="M1454.64,-45.5C1462.96,-45.5 1471.01,-45.5 1478.41,-45.5"/>
<polygon fill="black" stroke="black" points="1478.27,-49 1488.27,-45.5 1478.27,-42 1478.27,-49"/>
</g>
<!-- 2335627013712+ -->
<g id="node2" class="node">
<title>2335627013712+</title>
<ellipse fill="none" stroke="black" cx="1201.5" cy="-45.5" rx="27" ry="18"/>
<text xml:space="preserve" text-anchor="middle" x="1201.5" y="-40.45" font-family="Times New Roman,serif" font-size="14.00">+</text>
</g>
<!-- 2335627013712+&#45;&gt;2335627013712 -->
<g id="edge1" class="edge">
<title>2335627013712+&#45;&gt;2335627013712</title>
<path fill="none" stroke="black" d="M1228.94,-45.5C1236.09,-45.5 1244.28,-45.5 1252.99,-45.5"/>
<polygon fill="black" stroke="black" points="1252.76,-49 1262.76,-45.5 1252.76,-42 1252.76,-49"/>
</g>
<!-- 2335633819216 -->
<g id="node3" class="node">
<title>2335633819216</title>
<polygon fill="none" stroke="black" points="1580.25,-27.5 1580.25,-63.5 1768.5,-63.5 1768.5,-27.5 1580.25,-27.5"/>
<text xml:space="preserve" text-anchor="middle" x="1591.62" y="-40.7" font-family="Times New Roman,serif" font-size="14.00">g</text>
<polyline fill="none" stroke="black" points="1603,-28 1603,-63.5"/>
<text xml:space="preserve" text-anchor="middle" x="1645.12" y="-40.7" font-family="Times New Roman,serif" font-size="14.00">data &#45;0.7616</text>
<polyline fill="none" stroke="black" points="1687.25,-28 1687.25,-63.5"/>
<text xml:space="preserve" text-anchor="middle" x="1727.88" y="-40.7" font-family="Times New Roman,serif" font-size="14.00">grad 1.0000</text>
</g>
<!-- 2335633819216tanh&#45;&gt;2335633819216 -->
<g id="edge2" class="edge">
<title>2335633819216tanh&#45;&gt;2335633819216</title>
<path fill="none" stroke="black" d="M1544.56,-45.5C1551.74,-45.5 1559.97,-45.5 1568.72,-45.5"/>
<polygon fill="black" stroke="black" points="1568.54,-49 1578.54,-45.5 1568.54,-42 1568.54,-49"/>
</g>
<!-- 2335633885776 -->
<g id="node5" class="node">
<title>2335633885776</title>
<polygon fill="none" stroke="black" points="318.75,-111.5 318.75,-147.5 513,-147.5 513,-111.5 318.75,-111.5"/>
<text xml:space="preserve" text-anchor="middle" x="329.75" y="-124.7" font-family="Times New Roman,serif" font-size="14.00">c</text>
<polyline fill="none" stroke="black" points="340.75,-112 340.75,-147.5"/>
<text xml:space="preserve" text-anchor="middle" x="384" y="-124.7" font-family="Times New Roman,serif" font-size="14.00">data 10.0000</text>
<polyline fill="none" stroke="black" points="427.25,-112 427.25,-147.5"/>
<text xml:space="preserve" text-anchor="middle" x="470.12" y="-124.7" font-family="Times New Roman,serif" font-size="14.00">grad &#45;0.8399</text>
</g>
<!-- 2335632750320+ -->
<g id="node7" class="node">
<title>2335632750320+</title>
<ellipse fill="none" stroke="black" cx="576" cy="-101.5" rx="27" ry="18"/>
<text xml:space="preserve" text-anchor="middle" x="576" y="-96.45" font-family="Times New Roman,serif" font-size="14.00">+</text>
</g>
<!-- 2335633885776&#45;&gt;2335632750320+ -->
<g id="edge9" class="edge">
<title>2335633885776&#45;&gt;2335632750320+</title>
<path fill="none" stroke="black" d="M513.41,-112.41C522.21,-110.85 530.7,-109.34 538.42,-107.98"/>
<polygon fill="black" stroke="black" points="538.77,-111.47 548,-106.28 537.55,-104.58 538.77,-111.47"/>
</g>
<!-- 2335632750320 -->
<g id="node6" class="node">
<title>2335632750320</title>
<polygon fill="none" stroke="black" points="639,-83.5 639,-119.5 827.25,-119.5 827.25,-83.5 639,-83.5"/>
<text xml:space="preserve" text-anchor="middle" x="650.38" y="-96.7" font-family="Times New Roman,serif" font-size="14.00">d</text>
<polyline fill="none" stroke="black" points="661.75,-84 661.75,-119.5"/>
<text xml:space="preserve" text-anchor="middle" x="701.62" y="-96.7" font-family="Times New Roman,serif" font-size="14.00">data 4.0000</text>
<polyline fill="none" stroke="black" points="741.5,-84 741.5,-119.5"/>
<text xml:space="preserve" text-anchor="middle" x="784.38" y="-96.7" font-family="Times New Roman,serif" font-size="14.00">grad &#45;0.8399</text>
</g>
<!-- 2335627136272* -->
<g id="node10" class="node">
<title>2335627136272*</title>
<ellipse fill="none" stroke="black" cx="890.25" cy="-73.5" rx="27" ry="18"/>
<text xml:space="preserve" text-anchor="middle" x="890.25" y="-68.45" font-family="Times New Roman,serif" font-size="14.00">*</text>
</g>
<!-- 2335632750320&#45;&gt;2335627136272* -->
<g id="edge7" class="edge">
<title>2335632750320&#45;&gt;2335627136272*</title>
<path fill="none" stroke="black" d="M827.49,-84.65C836.36,-83.05 844.93,-81.5 852.73,-80.09"/>
<polygon fill="black" stroke="black" points="853.2,-83.56 862.42,-78.34 851.95,-76.68 853.2,-83.56"/>
</g>
<!-- 2335632750320+&#45;&gt;2335632750320 -->
<g id="edge3" class="edge">
<title>2335632750320+&#45;&gt;2335632750320</title>
<path fill="none" stroke="black" d="M603.31,-101.5C610.49,-101.5 618.72,-101.5 627.47,-101.5"/>
<polygon fill="black" stroke="black" points="627.29,-105 637.29,-101.5 627.29,-98 627.29,-105"/>
</g>
<!-- 2335627216656 -->
<g id="node8" class="node">
<title>2335627216656</title>
<polygon fill="none" stroke="black" points="640.12,-28.5 640.12,-64.5 826.12,-64.5 826.12,-28.5 640.12,-28.5"/>
<text xml:space="preserve" text-anchor="middle" x="650.38" y="-41.7" font-family="Times New Roman,serif" font-size="14.00">f</text>
<polyline fill="none" stroke="black" points="660.62,-29 660.62,-64.5"/>
<text xml:space="preserve" text-anchor="middle" x="702.75" y="-41.7" font-family="Times New Roman,serif" font-size="14.00">data &#45;2.0000</text>
<polyline fill="none" stroke="black" points="744.88,-29 744.88,-64.5"/>
<text xml:space="preserve" text-anchor="middle" x="785.5" y="-41.7" font-family="Times New Roman,serif" font-size="14.00">grad 1.6799</text>
</g>
<!-- 2335627216656&#45;&gt;2335627136272* -->
<g id="edge14" class="edge">
<title>2335627216656&#45;&gt;2335627136272*</title>
<path fill="none" stroke="black" d="M826.6,-62.6C835.76,-64.19 844.62,-65.73 852.67,-67.13"/>
<polygon fill="black" stroke="black" points="851.85,-70.54 862.3,-68.81 853.05,-63.65 851.85,-70.54"/>
</g>
<!-- 2335627136272 -->
<g id="node9" class="node">
<title>2335627136272</title>
<polygon fill="none" stroke="black" points="953.25,-55.5 953.25,-91.5 1138.5,-91.5 1138.5,-55.5 953.25,-55.5"/>
<text xml:space="preserve" text-anchor="middle" x="963.12" y="-68.7" font-family="Times New Roman,serif" font-size="14.00"> </text>
<polyline fill="none" stroke="black" points="973,-56 973,-91.5"/>
<text xml:space="preserve" text-anchor="middle" x="1015.12" y="-68.7" font-family="Times New Roman,serif" font-size="14.00">data &#45;8.0000</text>
<polyline fill="none" stroke="black" points="1057.25,-56 1057.25,-91.5"/>
<text xml:space="preserve" text-anchor="middle" x="1097.88" y="-68.7" font-family="Times New Roman,serif" font-size="14.00">grad 0.4200</text>
</g>
<!-- 2335627136272&#45;&gt;2335627013712+ -->
<g id="edge12" class="edge">
<title>2335627136272&#45;&gt;2335627013712+</title>
<path fill="none" stroke="black" d="M1138.9,-56.73C1147.64,-55.13 1156.11,-53.59 1163.83,-52.18"/>
<polygon fill="black" stroke="black" points="1164.2,-55.67 1173.41,-50.44 1162.94,-48.79 1164.2,-55.67"/>
</g>
<!-- 2335627136272*&#45;&gt;2335627136272 -->
<g id="edge4" class="edge">
<title>2335627136272*&#45;&gt;2335627136272</title>
<path fill="none" stroke="black" d="M917.66,-73.5C924.7,-73.5 932.75,-73.5 941.3,-73.5"/>
<polygon fill="black" stroke="black" points="941.29,-77 951.29,-73.5 941.29,-70 941.29,-77"/>
</g>
<!-- 2335627134368 -->
<g id="node11" class="node">
<title>2335627134368</title>
<polygon fill="none" stroke="black" points="955.5,-0.5 955.5,-36.5 1136.25,-36.5 1136.25,-0.5 955.5,-0.5"/>
<text xml:space="preserve" text-anchor="middle" x="965.38" y="-13.7" font-family="Times New Roman,serif" font-size="14.00"> </text>
<polyline fill="none" stroke="black" points="975.25,-1 975.25,-36.5"/>
<text xml:space="preserve" text-anchor="middle" x="1015.12" y="-13.7" font-family="Times New Roman,serif" font-size="14.00">data 7.0000</text>
<polyline fill="none" stroke="black" points="1055,-1 1055,-36.5"/>
<text xml:space="preserve" text-anchor="middle" x="1095.62" y="-13.7" font-family="Times New Roman,serif" font-size="14.00">grad 0.4200</text>
</g>
<!-- 2335627134368&#45;&gt;2335627013712+ -->
<g id="edge13" class="edge">
<title>2335627134368&#45;&gt;2335627013712+</title>
<path fill="none" stroke="black" d="M1136.68,-34.28C1146.23,-35.96 1155.51,-37.59 1163.89,-39.07"/>
<polygon fill="black" stroke="black" points="1163.14,-42.49 1173.6,-40.77 1164.36,-35.59 1163.14,-42.49"/>
</g>
<!-- 2335632750016 -->
<g id="node12" class="node">
<title>2335632750016</title>
<polygon fill="none" stroke="black" points="319.88,-56.5 319.88,-92.5 511.88,-92.5 511.88,-56.5 319.88,-56.5"/>
<text xml:space="preserve" text-anchor="middle" x="330.88" y="-69.7" font-family="Times New Roman,serif" font-size="14.00">e</text>
<polyline fill="none" stroke="black" points="341.88,-57 341.88,-92.5"/>
<text xml:space="preserve" text-anchor="middle" x="384" y="-69.7" font-family="Times New Roman,serif" font-size="14.00">data &#45;6.0000</text>
<polyline fill="none" stroke="black" points="426.12,-57 426.12,-92.5"/>
<text xml:space="preserve" text-anchor="middle" x="469" y="-69.7" font-family="Times New Roman,serif" font-size="14.00">grad &#45;0.8399</text>
</g>
<!-- 2335632750016&#45;&gt;2335632750320+ -->
<g id="edge11" class="edge">
<title>2335632750016&#45;&gt;2335632750320+</title>
<path fill="none" stroke="black" d="M512.05,-90.75C521.28,-92.33 530.2,-93.85 538.29,-95.23"/>
<polygon fill="black" stroke="black" points="537.53,-98.65 547.98,-96.89 538.71,-91.75 537.53,-98.65"/>
</g>
<!-- 2335632750016* -->
<g id="node13" class="node">
<title>2335632750016*</title>
<ellipse fill="none" stroke="black" cx="255.75" cy="-74.5" rx="27" ry="18"/>
<text xml:space="preserve" text-anchor="middle" x="255.75" y="-69.45" font-family="Times New Roman,serif" font-size="14.00">*</text>
</g>
<!-- 2335632750016*&#45;&gt;2335632750016 -->
<g id="edge5" class="edge">
<title>2335632750016*&#45;&gt;2335632750016</title>
<path fill="none" stroke="black" d="M283.22,-74.5C290.59,-74.5 299.09,-74.5 308.13,-74.5"/>
<polygon fill="black" stroke="black" points="307.89,-78 317.89,-74.5 307.89,-71 307.89,-78"/>
</g>
<!-- 2335633885136 -->
<g id="node14" class="node">
<title>2335633885136</title>
<polygon fill="none" stroke="black" points="0,-84.5 0,-120.5 192.75,-120.5 192.75,-84.5 0,-84.5"/>
<text xml:space="preserve" text-anchor="middle" x="11.38" y="-97.7" font-family="Times New Roman,serif" font-size="14.00">b</text>
<polyline fill="none" stroke="black" points="22.75,-85 22.75,-120.5"/>
<text xml:space="preserve" text-anchor="middle" x="64.88" y="-97.7" font-family="Times New Roman,serif" font-size="14.00">data &#45;3.0000</text>
<polyline fill="none" stroke="black" points="107,-85 107,-120.5"/>
<text xml:space="preserve" text-anchor="middle" x="149.88" y="-97.7" font-family="Times New Roman,serif" font-size="14.00">grad &#45;1.6799</text>
</g>
<!-- 2335633885136&#45;&gt;2335632750016* -->
<g id="edge6" class="edge">
<title>2335633885136&#45;&gt;2335632750016*</title>
<path fill="none" stroke="black" d="M193,-85.49C201.81,-83.92 210.32,-82.41 218.06,-81.03"/>
<polygon fill="black" stroke="black" points="218.43,-84.52 227.66,-79.32 217.21,-77.62 218.43,-84.52"/>
</g>
<!-- 2335632644080 -->
<g id="node15" class="node">
<title>2335632644080</title>
<polygon fill="none" stroke="black" points="4.88,-29.5 4.88,-65.5 187.88,-65.5 187.88,-29.5 4.88,-29.5"/>
<text xml:space="preserve" text-anchor="middle" x="15.88" y="-42.7" font-family="Times New Roman,serif" font-size="14.00">a</text>
<polyline fill="none" stroke="black" points="26.88,-30 26.88,-65.5"/>
<text xml:space="preserve" text-anchor="middle" x="66.75" y="-42.7" font-family="Times New Roman,serif" font-size="14.00">data 2.0000</text>
<polyline fill="none" stroke="black" points="106.62,-30 106.62,-65.5"/>
<text xml:space="preserve" text-anchor="middle" x="147.25" y="-42.7" font-family="Times New Roman,serif" font-size="14.00">grad 2.5198</text>
</g>
<!-- 2335632644080&#45;&gt;2335632750016* -->
<g id="edge10" class="edge">
<title>2335632644080&#45;&gt;2335632750016*</title>
<path fill="none" stroke="black" d="M188.01,-63.05C198.46,-64.84 208.62,-66.59 217.74,-68.15"/>
<polygon fill="black" stroke="black" points="217.11,-71.59 227.56,-69.84 218.3,-64.69 217.11,-71.59"/>
</g>
</g>
</svg>
