<?xml version="1.0" encoding="UTF-8"?>
<svg xmlns="http://www.w3.org/2000/svg" xmlns:xlink="http://www.w3.org/1999/xlink" width="854" height="480" viewBox="0 0 854 480">
<defs>
<g>
<g id="glyph-0-0">
<path d="M 0.898438 -0.539062 C 0.933594 -0.515625 0.960938 -0.484375 0.980469 -0.449219 C 1.003906 -0.410156 1.015625 -0.367188 1.015625 -0.3125 C 1.015625 -0.261719 1.003906 -0.214844 0.980469 -0.175781 C 0.957031 -0.132812 0.925781 -0.101562 0.890625 -0.078125 C 0.851562 -0.0507812 0.8125 -0.03125 0.765625 -0.0195312 C 0.71875 -0.0078125 0.671875 0 0.625 0 L 0.078125 0 L 0.078125 -0.0585938 C 0.0898438 -0.0585938 0.109375 -0.0625 0.132812 -0.0664062 C 0.160156 -0.0664062 0.175781 -0.0742188 0.1875 -0.078125 C 0.203125 -0.0859375 0.214844 -0.09375 0.222656 -0.109375 C 0.230469 -0.121094 0.234375 -0.136719 0.234375 -0.15625 L 0.234375 -0.988281 C 0.234375 -1.003906 0.230469 -1.023438 0.226562 -1.035156 C 0.21875 -1.050781 0.207031 -1.0625 0.1875 -1.070312 C 0.171875 -1.078125 0.152344 -1.085938 0.132812 -1.089844 C 0.113281 -1.09375 0.0976562 -1.097656 0.0820312 -1.097656 L 0.0820312 -1.15625 L 0.617188 -1.15625 C 0.65625 -1.15625 0.695312 -1.152344 0.734375 -1.140625 C 0.773438 -1.132812 0.808594 -1.121094 0.84375 -1.097656 C 0.875 -1.082031 0.902344 -1.054688 0.921875 -1.023438 C 0.941406 -0.988281 0.953125 -0.949219 0.953125 -0.902344 C 0.953125 -0.863281 0.945312 -0.828125 0.929688 -0.792969 C 0.914062 -0.761719 0.894531 -0.734375 0.867188 -0.710938 C 0.84375 -0.691406 0.816406 -0.671875 0.78125 -0.65625 C 0.75 -0.644531 0.714844 -0.632812 0.679688 -0.625 L 0.679688 -0.617188 C 0.710938 -0.613281 0.746094 -0.605469 0.789062 -0.589844 C 0.828125 -0.578125 0.867188 -0.5625 0.898438 -0.539062 M 0.703125 -0.710938 C 0.722656 -0.734375 0.734375 -0.761719 0.742188 -0.789062 C 0.75 -0.816406 0.753906 -0.847656 0.753906 -0.886719 C 0.753906 -0.949219 0.738281 -1 0.703125 -1.035156 C 0.667969 -1.074219 0.613281 -1.089844 0.539062 -1.089844 C 0.523438 -1.089844 0.5 -1.089844 0.472656 -1.089844 C 0.449219 -1.089844 0.425781 -1.089844 0.40625 -1.089844 L 0.40625 -0.644531 L 0.511719 -0.644531 C 0.554688 -0.644531 0.59375 -0.648438 0.625 -0.660156 C 0.65625 -0.671875 0.683594 -0.6875 0.703125 -0.710938 M 0.816406 -0.34375 C 0.816406 -0.410156 0.792969 -0.46875 0.746094 -0.511719 C 0.699219 -0.554688 0.632812 -0.578125 0.550781 -0.578125 C 0.515625 -0.578125 0.484375 -0.578125 0.460938 -0.578125 C 0.4375 -0.574219 0.417969 -0.574219 0.40625 -0.574219 L 0.40625 -0.167969 C 0.40625 -0.132812 0.421875 -0.109375 0.449219 -0.0898438 C 0.476562 -0.0742188 0.515625 -0.0625 0.566406 -0.0625 C 0.644531 -0.0625 0.707031 -0.0859375 0.75 -0.136719 C 0.792969 -0.183594 0.816406 -0.25 0.816406 -0.34375 Z "/>
</g>
<g id="glyph-0-1">
</g>
<g id="glyph-0-2">
<path d="M 0.945312 -0.554688 L 0.125 -0.554688 L 0.125 -0.65625 L 0.945312 -0.65625 L 0.945312 -0.554688 M 0.945312 -0.253906 L 0.125 -0.253906 L 0.125 -0.355469 L 0.945312 -0.355469 Z "/>
</g>
<g id="glyph-0-3">
<path d="M 0.554688 -0.378906 L 0.0703125 -0.378906 L 0.0703125 -0.507812 L 0.554688 -0.507812 Z "/>
</g>
<g id="glyph-0-4">
<path d="M 0.835938 -0.761719 C 0.871094 -0.71875 0.894531 -0.667969 0.914062 -0.613281 C 0.929688 -0.558594 0.9375 -0.5 0.9375 -0.4375 C 0.9375 -0.363281 0.929688 -0.296875 0.90625 -0.238281 C 0.886719 -0.179688 0.855469 -0.132812 0.820312 -0.09375 C 0.78125 -0.0546875 0.738281 -0.0234375 0.683594 -0.00390625 C 0.632812 0.015625 0.574219 0.0273438 0.511719 0.0273438 C 0.441406 0.0273438 0.378906 0.015625 0.324219 -0.0078125 C 0.269531 -0.03125 0.222656 -0.0625 0.191406 -0.105469 C 0.15625 -0.148438 0.128906 -0.195312 0.109375 -0.253906 C 0.09375 -0.308594 0.0820312 -0.371094 0.0820312 -0.4375 C 0.0820312 -0.5 0.09375 -0.5625 0.109375 -0.617188 C 0.125 -0.667969 0.152344 -0.71875 0.191406 -0.761719 C 0.222656 -0.804688 0.269531 -0.839844 0.324219 -0.863281 C 0.378906 -0.886719 0.441406 -0.898438 0.511719 -0.898438 C 0.585938 -0.898438 0.648438 -0.886719 0.703125 -0.863281 C 0.757812 -0.835938 0.800781 -0.804688 0.835938 -0.761719 M 0.757812 -0.4375 C 0.757812 -0.566406 0.738281 -0.667969 0.691406 -0.738281 C 0.648438 -0.808594 0.589844 -0.84375 0.511719 -0.84375 C 0.4375 -0.84375 0.375 -0.808594 0.332031 -0.738281 C 0.285156 -0.667969 0.265625 -0.566406 0.265625 -0.4375 C 0.265625 -0.3125 0.285156 -0.214844 0.328125 -0.140625 C 0.371094 -0.0664062 0.429688 -0.0273438 0.511719 -0.0273438 C 0.589844 -0.0273438 0.652344 -0.0664062 0.695312 -0.140625 C 0.738281 -0.214844 0.757812 -0.3125 0.757812 -0.4375 Z "/>
</g>
<g id="glyph-0-5">
<path d="M 0.335938 -0.09375 C 0.335938 -0.0625 0.328125 -0.0390625 0.304688 -0.015625 C 0.28125 0.00390625 0.257812 0.015625 0.226562 0.015625 C 0.195312 0.015625 0.167969 0.00390625 0.148438 -0.015625 C 0.125 -0.0390625 0.113281 -0.0625 0.113281 -0.09375 C 0.113281 -0.125 0.125 -0.148438 0.148438 -0.171875 C 0.167969 -0.195312 0.195312 -0.203125 0.226562 -0.203125 C 0.257812 -0.203125 0.28125 -0.195312 0.304688 -0.171875 C 0.328125 -0.148438 0.335938 -0.125 0.335938 -0.09375 Z "/>
</g>
<g id="glyph-0-6">
<path d="M 0.910156 -0.304688 C 0.910156 -0.214844 0.871094 -0.136719 0.789062 -0.0703125 C 0.710938 -0.00390625 0.609375 0.0273438 0.480469 0.0273438 C 0.359375 0.0273438 0.265625 -0.00390625 0.191406 -0.0625 C 0.121094 -0.121094 0.0859375 -0.199219 0.0859375 -0.296875 C 0.0859375 -0.367188 0.105469 -0.425781 0.148438 -0.472656 C 0.191406 -0.519531 0.253906 -0.558594 0.335938 -0.589844 C 0.269531 -0.628906 0.21875 -0.671875 0.183594 -0.71875 C 0.148438 -0.761719 0.132812 -0.816406 0.132812 -0.875 C 0.132812 -0.960938 0.167969 -1.035156 0.246094 -1.09375 C 0.320312 -1.15625 0.410156 -1.183594 0.515625 -1.183594 C 0.617188 -1.183594 0.703125 -1.15625 0.769531 -1.101562 C 0.832031 -1.042969 0.867188 -0.972656 0.867188 -0.886719 C 0.867188 -0.832031 0.847656 -0.78125 0.8125 -0.730469 C 0.777344 -0.683594 0.722656 -0.644531 0.652344 -0.609375 C 0.746094 -0.574219 0.808594 -0.53125 0.847656 -0.484375 C 0.890625 -0.4375 0.910156 -0.378906 0.910156 -0.304688 M 0.710938 -0.898438 C 0.710938 -0.964844 0.691406 -1.015625 0.652344 -1.058594 C 0.613281 -1.101562 0.5625 -1.121094 0.503906 -1.121094 C 0.441406 -1.121094 0.390625 -1.101562 0.351562 -1.0625 C 0.3125 -1.019531 0.292969 -0.972656 0.292969 -0.914062 C 0.292969 -0.855469 0.316406 -0.808594 0.359375 -0.765625 C 0.402344 -0.726562 0.484375 -0.683594 0.597656 -0.640625 C 0.636719 -0.667969 0.667969 -0.699219 0.683594 -0.742188 C 0.703125 -0.785156 0.710938 -0.835938 0.710938 -0.898438 M 0.746094 -0.269531 C 0.746094 -0.300781 0.738281 -0.332031 0.722656 -0.359375 C 0.710938 -0.382812 0.6875 -0.40625 0.660156 -0.429688 C 0.632812 -0.449219 0.597656 -0.46875 0.550781 -0.492188 C 0.503906 -0.515625 0.449219 -0.539062 0.394531 -0.5625 C 0.34375 -0.535156 0.304688 -0.496094 0.28125 -0.453125 C 0.257812 -0.410156 0.242188 -0.359375 0.242188 -0.304688 C 0.242188 -0.222656 0.269531 -0.160156 0.316406 -0.109375 C 0.363281 -0.0625 0.425781 -0.0390625 0.503906 -0.0390625 C 0.578125 -0.0390625 0.636719 -0.0585938 0.679688 -0.101562 C 0.722656 -0.144531 0.746094 -0.199219 0.746094 -0.269531 Z "/>
</g>
<g id="glyph-0-7">
<path d="M 0.6875 -0.382812 C 0.722656 -0.351562 0.75 -0.316406 0.773438 -0.273438 C 0.796875 -0.226562 0.808594 -0.171875 0.808594 -0.105469 C 0.808594 0.0117188 0.769531 0.105469 0.691406 0.183594 C 0.609375 0.257812 0.511719 0.296875 0.386719 0.296875 C 0.292969 0.296875 0.210938 0.273438 0.148438 0.230469 C 0.0820312 0.183594 0.046875 0.132812 0.046875 0.0742188 C 0.046875 0.0429688 0.0546875 0.0195312 0.0703125 0 C 0.0820312 -0.0195312 0.101562 -0.03125 0.132812 -0.03125 C 0.164062 -0.03125 0.1875 -0.0234375 0.207031 -0.00390625 C 0.222656 0.0117188 0.230469 0.03125 0.230469 0.0507812 C 0.230469 0.0664062 0.226562 0.0898438 0.222656 0.117188 C 0.214844 0.140625 0.210938 0.160156 0.207031 0.171875 C 0.210938 0.175781 0.21875 0.183594 0.230469 0.1875 C 0.238281 0.195312 0.25 0.203125 0.265625 0.207031 C 0.277344 0.214844 0.296875 0.21875 0.316406 0.222656 C 0.335938 0.226562 0.359375 0.230469 0.386719 0.230469 C 0.421875 0.230469 0.453125 0.222656 0.484375 0.210938 C 0.515625 0.195312 0.542969 0.175781 0.5625 0.148438 C 0.585938 0.117188 0.605469 0.0820312 0.617188 0.0429688 C 0.628906 0.00390625 0.632812 -0.046875 0.632812 -0.105469 C 0.632812 -0.179688 0.613281 -0.246094 0.570312 -0.296875 C 0.527344 -0.34375 0.472656 -0.371094 0.402344 -0.371094 C 0.359375 -0.371094 0.316406 -0.363281 0.28125 -0.347656 C 0.242188 -0.328125 0.207031 -0.300781 0.179688 -0.265625 L 0.125 -0.285156 L 0.195312 -0.875 L 0.777344 -0.875 L 0.777344 -0.726562 L 0.257812 -0.726562 L 0.21875 -0.382812 C 0.242188 -0.402344 0.273438 -0.417969 0.3125 -0.433594 C 0.351562 -0.453125 0.398438 -0.460938 0.445312 -0.460938 C 0.484375 -0.460938 0.527344 -0.453125 0.570312 -0.441406 C 0.609375 -0.429688 0.648438 -0.410156 0.6875 -0.382812 Z "/>
</g>
</g>
</defs>
<g fill="rgb(100%, 100%, 100%)" fill-opacity="1">
<use xlink:href="#glyph-0-0" x="30" y="21.527344"/>
<use xlink:href="#glyph-0-1" x="31" y="21.527344"/>
<use xlink:href="#glyph-0-2" x="31" y="21.527344"/>
<use xlink:href="#glyph-0-1" x="32" y="21.527344"/>
<use xlink:href="#glyph-0-3" x="32" y="21.527344"/>
<use xlink:href="#glyph-0-4" x="33" y="21.527344"/>
<use xlink:href="#glyph-0-5" x="34" y="21.527344"/>
<use xlink:href="#glyph-0-6" x="34" y="21.527344"/>
<use xlink:href="#glyph-0-7" x="35" y="21.527344"/>
</g>
</svg>
